<svg xmlns="http://www.w3.org/2000/svg" viewBox="0 0 500 500"><g id="freepik--background-complete--inject-13"><path d="M349.77,300.29s-.63-90.18-6.19-128.35-3.64-117-3.64-117h6.82s-3.93,71.46,5.68,108.35,6.56,121.45,7.87,137.28C360.31,300.58,355.82,303.83,349.77,300.29Z" style="fill:#f0f0f0"></path><path d="M344,102.32S359.67,78,360.31,55l5.58.25s-4.12,36-21.9,63.44Z" style="fill:#f0f0f0"></path><path d="M366.27,314.84s33.79-25.76-2.68-21.08c0,0-23.49-29.46-25.79-1.68,0,0-26.73-5.34-3,22.76Z" style="fill:#e0e0e0"></path><path d="M352.76,314.84s.19-14.47-6.54-26.72" style="fill:none;stroke:#fff;stroke-miterlimit:10;stroke-width:1.2755100000000001px"></path><path d="M336.73,299.33s6.55,7.74,14.92,4.65" style="fill:none;stroke:#fff;stroke-miterlimit:10;stroke-width:1.2755100000000001px"></path><path d="M368.11,299s-3,9.68-15.35,10" style="fill:none;stroke:#fff;stroke-miterlimit:10;stroke-width:1.2755100000000001px"></path><path d="M182.53,304.45s8.25,3.58,15.78,0c0,0-1.51-99.14-3.23-131.07C193.39,142,191.82,88,195.35,55H180.4s.7,73.84,3.57,121.33S182.53,304.45,182.53,304.45Z" style="fill:#f0f0f0"></path><path d="M228.73,55.2h-5.91c-.43,8.58-3.94,23.09-17.88,42.19-11.52,15.79-14.65,30.09-14.65,30.09l1.32,23.74h1.3c1.54-11.74,5.73-27.92,16.08-47.1C230.91,63.48,228.73,55.2,228.73,55.2Z" style="fill:#f0f0f0"></path><polygon points="183.3 104.12 176.59 99.22 174.95 105.34 183.3 115.16 183.3 104.12" style="fill:#f0f0f0"></polygon><path d="M276,304.45s8.24,3.58,15.78,0c0,0-1.51-99.14-3.23-131.07C286.81,142,285.23,88,288.77,55h-15s.7,73.84,3.57,121.33S276,304.45,276,304.45Z" style="fill:#f0f0f0"></path><path d="M252.25,55.2s11.67,28.5,27,34.7v9.32s-21.35-9.5-31.75-44Z" style="fill:#f0f0f0"></path><polygon points="290.3 104.99 284.41 112.01 283.5 121.65 293.86 110.78 290.3 104.99" style="fill:#f0f0f0"></polygon><path d="M161.55,310.11h53.68s20.3-31.94-3.58-26c0,0-2.3-23.68-21.67-4.73,0,0-32-15.77-21.61,8.81C168.37,288.22,139.21,284.44,161.55,310.11Z" style="fill:#e0e0e0"></path><path d="M191.15,310.11s8.63-16.54,10.72-32.31" style="fill:none;stroke:#fff;stroke-miterlimit:10;stroke-width:1.3660400000000001px"></path><path d="M197.45,295.28s8.59,2.19,13.63-2.86" style="fill:none;stroke:#fff;stroke-miterlimit:10;stroke-width:1.3660400000000001px"></path><path d="M177.88,310.11a83.27,83.27,0,0,1-12.68-14.83" style="fill:none;stroke:#fff;stroke-miterlimit:10;stroke-width:1.4796900000000002px"></path><path d="M171.54,303.54a9.37,9.37,0,0,1-8.93-1.61" style="fill:none;stroke:#fff;stroke-miterlimit:10;stroke-width:1.4796900000000002px"></path><path d="M186.24,310.11s-6.21-16.28-6.73-29.22" style="fill:none;stroke:#fff;stroke-miterlimit:10;stroke-width:1.3660400000000001px"></path><path d="M181.74,295.28s5.28-3.78,5.79-9.47" style="fill:none;stroke:#fff;stroke-miterlimit:10;stroke-width:1.3660400000000001px"></path><rect y="382.4" width="500" height="0.25" style="fill:#ebebeb"></rect><rect x="416.78" y="398.49" width="33.12" height="0.25" style="fill:#ebebeb"></rect><rect x="322.53" y="401.21" width="8.69" height="0.25" style="fill:#ebebeb"></rect><rect x="396.59" y="389.21" width="19.19" height="0.25" style="fill:#ebebeb"></rect><rect x="52.46" y="390.89" width="43.19" height="0.25" style="fill:#ebebeb"></rect><rect x="104.56" y="390.89" width="6.33" height="0.25" style="fill:#ebebeb"></rect><rect x="131.47" y="395.11" width="93.68" height="0.25" style="fill:#ebebeb"></rect><path d="M237,337.8H43.91a5.71,5.71,0,0,1-5.7-5.71V60.66A5.71,5.71,0,0,1,43.91,55H237a5.71,5.71,0,0,1,5.71,5.71V332.09A5.71,5.71,0,0,1,237,337.8ZM43.91,55.2a5.46,5.46,0,0,0-5.45,5.46V332.09a5.46,5.46,0,0,0,5.45,5.46H237a5.47,5.47,0,0,0,5.46-5.46V60.66A5.47,5.47,0,0,0,237,55.2Z" style="fill:#ebebeb"></path><path d="M453.31,337.8H260.21a5.72,5.72,0,0,1-5.71-5.71V60.66A5.72,5.72,0,0,1,260.21,55h193.1A5.71,5.71,0,0,1,459,60.66V332.09A5.71,5.71,0,0,1,453.31,337.8ZM260.21,55.2a5.47,5.47,0,0,0-5.46,5.46V332.09a5.47,5.47,0,0,0,5.46,5.46h193.1a5.47,5.47,0,0,0,5.46-5.46V60.66a5.47,5.47,0,0,0-5.46-5.46Z" style="fill:#ebebeb"></path><path d="M76,369.61S89,211.19,88.37,180,80.15,86.72,79.56,55.2h41.7s-1.36,67,5.29,116.74c8.82,66,0,197.67,0,197.67S107.17,377.22,76,369.61Z" style="fill:#f0f0f0"></path><path d="M64.06,55.2S62.83,91.77,85.64,106l3.08,33.16S54.5,106.19,56.66,55.2Z" style="fill:#f0f0f0"></path><polygon points="123.41 158.16 130.42 145.61 135.96 153.74 123.41 180.99 123.41 158.16" style="fill:#f0f0f0"></polygon><path d="M118.46,70.46S136.11,64.85,142.53,55h9.9a124.08,124.08,0,0,1-35,37.17Z" style="fill:#f0f0f0"></path><path d="M72.39,382.52S49.67,357.11,83.15,351c0,0-.49-16.38,14.91-9.05,0,0,22.29-25.67,33.53,5.37,0,0,18.28-6.73,8.5,18.34,0,0,23-4.3,11.73,16.86Z" style="fill:#e0e0e0"></path><line x1="116.23" y1="382.52" x2="116.23" y2="340.04" style="fill:none;stroke:#fff;stroke-miterlimit:10"></line><path d="M116.23,361.28s-11.34-1.72-20.44-14.38" style="fill:none;stroke:#fff;stroke-miterlimit:10"></path><path d="M101.77,353.58s.24-6,1.48-9.19" style="fill:none;stroke:#fff;stroke-miterlimit:10"></path><path d="M116.23,349.67s5-4.24,5.67-8.18" style="fill:none;stroke:#fff;stroke-miterlimit:10"></path><path d="M109.24,382.37s-18.86-10.68-28-23.73" style="fill:none;stroke:#fff;stroke-miterlimit:10"></path><path d="M91.44,369.61s2.63-6.35.52-12.36" style="fill:none;stroke:#fff;stroke-miterlimit:10"></path><path d="M100,376.35s-12.76,3.91-21.73-2.28" style="fill:none;stroke:#fff;stroke-miterlimit:10"></path><path d="M122.56,382.52s11.74-11.07,12.92-21.24" style="fill:none;stroke:#fff;stroke-miterlimit:10"></path><path d="M129.79,374.07s7.14,1.6,12-2.17" style="fill:none;stroke:#fff;stroke-miterlimit:10"></path><path d="M311.27,307.71s15.61-17.45-7.39-21.65c0,0,.34-11.24-10.23-6.21,0,0-15.31-17.62-23,3.69,0,0-12.55-4.62-5.84,12.59,0,0-15.78-2.95-8.06,11.58Z" style="fill:#e0e0e0"></path><line x1="281.17" y1="307.71" x2="281.17" y2="278.54" style="fill:none;stroke:#fff;stroke-miterlimit:10"></line><path d="M281.17,293.13s7.78-1.19,14-9.88" style="fill:none;stroke:#fff;stroke-miterlimit:10"></path><path d="M291.09,287.84a25.57,25.57,0,0,0-1-6.31" style="fill:none;stroke:#fff;stroke-miterlimit:10"></path><path d="M281.17,285.15s-3.45-2.91-3.9-5.61" style="fill:none;stroke:#fff;stroke-miterlimit:10"></path><path d="M286,307.61s12.95-7.33,19.2-16.3" style="fill:none;stroke:#fff;stroke-miterlimit:10"></path><path d="M298.19,298.85s-1.81-4.37-.36-8.49" style="fill:none;stroke:#fff;stroke-miterlimit:10"></path><path d="M292.32,303.47s8.77,2.69,14.93-1.56" style="fill:none;stroke:#fff;stroke-miterlimit:10"></path><path d="M276.82,307.71s-8.06-7.6-8.88-14.58" style="fill:none;stroke:#fff;stroke-miterlimit:10"></path><path d="M271.85,301.91s-4.9,1.1-8.25-1.49" style="fill:none;stroke:#fff;stroke-miterlimit:10"></path><path d="M377.2,370.51s-13.46-96.81,0-167.13-3-148.18-3-148.18H409s12.39,51.48,11.31,96.18-11.31,83.77-8.08,138,17.24,81.1,17.24,81.1Z" style="fill:#f0f0f0"></path><polygon points="384.61 165.95 373.87 152.46 368.56 160.01 382.59 194.3 384.61 165.95" style="fill:#f0f0f0"></polygon><path d="M412.57,107.3s19.16-28.55,23.2-52.1h9.07s-7.56,52.66-28.24,97.26Z" style="fill:#f0f0f0"></path><path d="M360.71,382.52s-12.25-18.58,6.87-19.78c0,0,3.29-31.37,24.5-12.84,0,0,24.85-30.48,41.26,3.88,0,0,33.44-4,12.83,28.62Z" style="fill:#e0e0e0"></path><path d="M410,382.45s8.72-19.31,6.83-33.89" style="fill:none;stroke:#fff;stroke-miterlimit:10"></path><path d="M414.21,370.51s-13.75-3.77-19.66-14.73" style="fill:none;stroke:#fff;stroke-miterlimit:10"></path><path d="M416.51,360s7.27-.9,9.36-6.81" style="fill:none;stroke:#fff;stroke-miterlimit:10"></path><path d="M400.62,363.14s-1.1-4.81,0-8.11" style="fill:none;stroke:#fff;stroke-miterlimit:10"></path><path d="M425.87,382.4s10.5-8.54,12.24-16.9" style="fill:none;stroke:#fff;stroke-miterlimit:10"></path><path d="M433.34,374.69s8.66-.09,11.61-4.18" style="fill:none;stroke:#fff;stroke-miterlimit:10"></path><path d="M389,382.48s-10.57-8.62-13.92-20.71" style="fill:none;stroke:#fff;stroke-miterlimit:10"></path><path d="M381.69,374.69s-10.63.91-14.94-4.18" style="fill:none;stroke:#fff;stroke-miterlimit:10"></path></g><g id="freepik--Shadow--inject-13"><ellipse id="freepik--path--inject-13" cx="250" cy="416.24" rx="193.89" ry="11.32" style="fill:#f5f5f5"></ellipse></g><g id="freepik--Arrows--inject-13"><polygon points="82.39 339.48 80.2 330.04 82.64 328.09 84.59 336.49 82.39 339.48" style="fill:#03045E"></polygon><polygon points="82.39 339.48 80.2 330.04 82.64 328.09 84.59 336.49 82.39 339.48" style="fill:#fff;opacity:0.4"></polygon><polygon points="81.97 339.57 78.68 337.86 76.73 329.46 79.78 330.13 81.97 339.57" style="fill:#03045E"></polygon><polygon points="81.97 339.57 78.68 337.86 76.73 329.46 79.78 330.13 81.97 339.57" style="fill:#fff;opacity:0.4"></polygon><polygon points="100.43 416.49 80.15 329.11 79.36 329.29 99.6 416.49 100.43 416.49" style="fill:#263238"></polygon><polygon points="100.43 416.49 80.15 329.11 79.36 329.29 99.6 416.49 100.43 416.49" style="opacity:0.5"></polygon><polygon points="104.42 353.03 103.69 343.36 106.4 341.81 107.05 350.41 104.42 353.03" style="fill:#03045E"></polygon><polygon points="104.42 353.03 103.69 343.36 106.4 341.81 107.05 350.41 104.42 353.03" style="fill:#fff;opacity:0.4"></polygon><polygon points="103.99 353.06 101 350.87 100.36 342.27 103.27 343.4 103.99 353.06" style="fill:#03045E"></polygon><polygon points="103.99 353.06 101 350.87 100.36 342.27 103.27 343.4 103.99 353.06" style="fill:#fff;opacity:0.4"></polygon><polygon points="109.34 416.49 103.78 342.44 102.97 342.5 108.52 416.49 109.34 416.49" style="fill:#263238"></polygon><polygon points="109.34 416.49 103.78 342.44 102.97 342.5 108.52 416.49 109.34 416.49" style="opacity:0.5"></polygon><polygon points="322.35 352.15 323.66 342.55 326.63 341.6 325.47 350.14 322.35 352.15" style="fill:#03045E"></polygon><polygon points="322.35 352.15 323.66 342.55 326.63 341.6 325.47 350.14 322.35 352.15" style="fill:#fff;opacity:0.4"></polygon><polygon points="321.93 352.1 319.46 349.33 320.62 340.78 323.23 342.49 321.93 352.1" style="fill:#03045E"></polygon><polygon points="321.93 352.1 319.46 349.33 320.62 340.78 323.23 342.49 321.93 352.1" style="fill:#fff;opacity:0.4"></polygon><polygon points="313.78 416.49 323.93 341.66 323.13 341.56 312.96 416.49 313.78 416.49" style="fill:#263238"></polygon><polygon points="313.78 416.49 323.93 341.66 323.13 341.56 312.96 416.49 313.78 416.49" style="opacity:0.5"></polygon></g><g id="freepik--Character--inject-13"><path d="M191.68,208.31c-2.43,8.93-5.62,37.06-5.61,41.65,0,10.55.74,37.53.74,37.53-8.43,2.1-34.53.74-47.82-.22-1.73-13.51-8.82-76.66-8-79.31C132,204.82,191.68,208.31,191.68,208.31Z" style="fill:#03045E"></path><path d="M191.68,208.31c-2.43,8.93-5.62,37.06-5.61,41.65,0,10.55.74,37.53.74,37.53-8.43,2.1-34.53.74-47.82-.22-1.73-13.51-8.82-76.66-8-79.31C132,204.82,191.68,208.31,191.68,208.31Z" style="fill:#fff;opacity:0.5"></path><path d="M239,210.54l21.65-2.92s3.13-3.55,6.12-4.15,10.23,2,10.29,2.91-.77,9.54-2.1,9.62a38.83,38.83,0,0,1-14.22-1.83L241.31,220Z" style="fill:#e4897b"></path><path d="M141.32,286.38,183.41,284l1.74,7.61s38.26,23.72,54.21,53.19c11.23,20.77,20.87,45.24,28.87,62.06a11.59,11.59,0,0,1-4.82,1.17,12.31,12.31,0,0,1-6.06-1S241,391.3,222.19,356.86c0,0-41.09-38.86-56.43-42-9.14,7.49-16.75,19.25-27.23,41.12,6.27,4.23,14,32.7,21.42,50.85,0,0-2.23,1.82-8.13.21,0,0-25.38-29.46-33-46a23.89,23.89,0,0,1-.56-18.9c4.66-11.7,13.53-32.9,22.41-48.05Z" style="fill:#263238"></path><path d="M141.32,286.38,183.41,284l1.74,7.61s38.26,23.72,54.21,53.19c11.23,20.77,20.87,45.24,28.87,62.06a11.59,11.59,0,0,1-4.82,1.17,12.31,12.31,0,0,1-6.06-1S241,391.3,222.19,356.86c0,0-41.09-38.86-56.43-42-9.14,7.49-16.75,19.25-27.23,41.12,6.27,4.23,14,32.7,21.42,50.85,0,0-2.23,1.82-8.13.21,0,0-25.38-29.46-33-46a23.89,23.89,0,0,1-.56-18.9c4.66-11.7,13.53-32.9,22.41-48.05Z" style="fill:#fff;opacity:0.1"></path><path d="M150.67,406.81h10.06a.73.73,0,0,1,.7.57l2.87,7.38a1.22,1.22,0,0,1-.94,1.45,1.24,1.24,0,0,1-.27,0c-3.25-.05-6.86-.27-10.94-.27-2.52,0-10.11.27-13.58.27s-3.93-3.43-2.51-3.75c6.38-1.39,11.18-3.32,13.22-5.15A2,2,0,0,1,150.67,406.81Z" style="fill:#2e353a"></path><g style="opacity:0.1"><path d="M150.67,406.81h10.06a.73.73,0,0,1,.7.57l2.87,7.38a1.22,1.22,0,0,1-.94,1.45,1.24,1.24,0,0,1-.27,0c-3.25-.05-6.86-.27-10.94-.27-2.52,0-10.11.27-13.58.27s-3.93-3.43-2.51-3.75c6.38-1.39,11.18-3.32,13.22-5.15A2,2,0,0,1,150.67,406.81Z"></path></g><path d="M267.81,406.81H257.76a.74.74,0,0,0-.71.57l-1.63,7.37a1.22,1.22,0,0,0,.94,1.45,1.24,1.24,0,0,0,.27,0c3.25-.06,5.62-.26,9.71-.26,2.51,0,10.1.27,13.58.27s3.93-3.43,2.5-3.75c-6.38-1.39-11.18-3.32-13.22-5.15A2,2,0,0,0,267.81,406.81Z" style="fill:#2e353a"></path><g style="opacity:0.1"><path d="M267.81,406.81H257.76a.74.74,0,0,0-.71.57l-1.63,7.37a1.22,1.22,0,0,0,.94,1.45,1.24,1.24,0,0,0,.27,0c3.25-.06,5.62-.26,9.71-.26,2.51,0,10.1.27,13.58.27s3.93-3.43,2.5-3.75c-6.38-1.39-11.18-3.32-13.22-5.15A2,2,0,0,0,267.81,406.81Z"></path></g><path d="M263,408.33A16.25,16.25,0,0,0,268.6,407c-6.07-12.75-12.38-30.5-20.31-47.1-10.18,2.8-18.17,15.49-18.19,15.5,9,13.93,26.81,32.67,26.81,32.67A26.17,26.17,0,0,0,263,408.33Z" style="fill:#2e353a"></path><path d="M263,408.33A16.25,16.25,0,0,0,268.6,407c-6.07-12.75-12.38-30.5-20.31-47.1-10.18,2.8-18.17,15.49-18.19,15.5,9,13.93,26.81,32.67,26.81,32.67A26.17,26.17,0,0,0,263,408.33Z" style="opacity:0.1"></path><path d="M122.54,371.71c10,15.88,20.94,26.22,27.13,35.28,3.45,5.05,11.28-.22,11.28-.22-3.92-9.55-7.68-24.31-11.88-34.66A39.66,39.66,0,0,0,122.54,371.71Z" style="fill:#2e353a"></path><path d="M122.54,371.71c10,15.88,20.94,26.22,27.13,35.28,3.45,5.05,11.28-.22,11.28-.22-3.92-9.55-7.68-24.31-11.88-34.66A39.66,39.66,0,0,0,122.54,371.71Z" style="opacity:0.1"></path><path d="M258,206.35a413.79,413.79,0,0,1-68.72,1.81l0,7.91L189,229.2c35-3.44,58.43-9.14,69.66-11.46Z" style="fill:#03045E"></path><path d="M258,206.35a413.79,413.79,0,0,1-68.72,1.81l0,7.91L189,229.2c35-3.44,58.43-9.14,69.66-11.46Z" style="opacity:0.5"></path><path d="M191.68,208.31l-17.5-1.11-.33,0a14.61,14.61,0,0,1,.26,2.28c.06,1.06.13,2.12.19,3.18.06,1.3,2,2.47,1.95,3.76.53,1.66-.92,3.7-.4,5.94,3.1,13.25,5.77,37.36,7.27,76.58l8.81-2.76A520.09,520.09,0,0,1,191.68,208.31Z" style="fill:#03045E;isolation:isolate"></path><path d="M191.68,208.31l-17.5-1.11-.33,0a14.61,14.61,0,0,1,.26,2.28c.06,1.06.13,2.12.19,3.18.06,1.3,2,2.47,1.95,3.76.53,1.66-.92,3.7-.4,5.94,3.1,13.25,5.77,37.36,7.27,76.58l8.81-2.76A520.09,520.09,0,0,1,191.68,208.31Z" style="opacity:0.5;isolation:isolate"></path><path d="M133.17,247.62c1.86,31.6-2.23,47.34-2.23,47.34,3.19,4.2,13.26,5.33,13.26,5.33,18.14-40.87-1.38-93.63-1.38-93.63C139.62,205.21,131,208,131,208,128.61,214.25,132.94,243.66,133.17,247.62Z" style="fill:#03045E;isolation:isolate"></path><path d="M133.17,247.62c1.86,31.6-2.23,47.34-2.23,47.34,3.19,4.2,13.26,5.33,13.26,5.33,18.14-40.87-1.38-93.63-1.38-93.63C139.62,205.21,131,208,131,208,128.61,214.25,132.94,243.66,133.17,247.62Z" style="opacity:0.5;isolation:isolate"></path><path d="M132.11,207.6c-9.23-1.61-29.52-3.19-29.52-3.19S83.36,202.63,82,210.28c-2.51,14.31,52.74,15.91,52.74,15.91s5.27-2.51,4.26-9.53C137.9,208.82,132.11,207.6,132.11,207.6Z" style="fill:#03045E"></path><path d="M132.11,207.6c-9.23-1.61-29.52-3.19-29.52-3.19S83.36,202.63,82,210.28c-2.51,14.31,52.74,15.91,52.74,15.91s5.27-2.51,4.26-9.53C137.9,208.82,132.11,207.6,132.11,207.6Z" style="opacity:0.5"></path><path d="M147.55,223.3s-13.48-8-11.33-13.74c3.28-8.86,33-8.39,42.48-4,9.87,4.57-2.85,16.75-2.85,16.75-.84-6.61-2.11-10.66-5.68-11.94-2.27-.82-6.55,4.26-11.58,2.42C143.27,207.21,147.55,223.3,147.55,223.3Z" style="fill:#03045E"></path><path d="M147.55,223.3s-13.48-8-11.33-13.74c3.28-8.86,33-8.39,42.48-4,9.87,4.57-2.85,16.75-2.85,16.75-.84-6.61-2.11-10.66-5.68-11.94-2.27-.82-6.55,4.26-11.58,2.42C143.27,207.21,147.55,223.3,147.55,223.3Z" style="opacity:0.1"></path><path d="M145.79,204.7s-6.64,7.74-22.47,10.51c-22,3.86-31.48-1-31.48-1Z" style="opacity:0.30000000000000004"></path><path d="M176,175s1.41,9.38-4.65,13.77-6-16.85-6-16.85Z" style="fill:#2e353a"></path><path d="M176,175s1.41,9.38-4.65,13.77-6-16.85-6-16.85Z" style="opacity:0.2"></path><path d="M151.39,211.79c4,3.66,13.91,2.21,13.91,2.21s6.17-1.69,4.87-3.61c-3.63-.6-5.39-2.3-6.12-4.47a10.5,10.5,0,0,1-.36-4.15,20.58,20.58,0,0,1,.3-2.31l-12.21-9.05C153.38,196.38,155.34,207.46,151.39,211.79Z" style="fill:#e4897b"></path><path d="M154.6,196.16c.48,7.33,6.51,9.35,9.45,9.76a10.5,10.5,0,0,1-.36-4.15Z" style="opacity:0.2;isolation:isolate"></path><path d="M153.78,197.86a10.36,10.36,0,0,0,11.88,4,11.55,11.55,0,0,0,6.59-5.36c.2-.35.37-.72.54-1.1,3-7,3.93-19.16-3.44-23.73a11.22,11.22,0,0,0-17.14,8.46C151.3,188.29,150.39,193,153.78,197.86Z" style="fill:#e4897b"></path><path d="M163.66,183.83a4.21,4.21,0,0,1,2.32,1,3.7,3.7,0,0,0-2.66.3" style="fill:none;stroke:#2e353a;stroke-linecap:round;stroke-linejoin:round;stroke-width:0.526459px"></path><path d="M180.46,167.17c-.87-2.63-16.41-6-25.86-.83-11.11,6.12-6.32,12.1-5.36,19.47.09.7.21,1.35.33,2l1.68.8.79.35c.14-1.65.5-2.88,1-3,1.14-.17,1,1.14,1,1.14,2.54-1.58,4.82-6.05,4-9.21-.6-2.42-1.06-3,1.23-1.87C173.74,183.24,181.34,169.81,180.46,167.17Z" style="fill:#2e353a"></path><path d="M158.09,175.51h0s-5.28-2.95-10.51-1.51c-.77,3.67,1.1,7.5,1.66,11.81,0,.35.1.69.16,1,.94.55,1.87,1,2.7,1.48.18-1.33.51-2.26.92-2.33,1.14-.17,1,1.14,1,1.14,2.54-1.58,4.82-6.05,4-9.21C157.65,176.09,157.28,175.31,158.09,175.51Z" style="opacity:0.2"></path><path d="M147.55,186.16a7.79,7.79,0,0,0,3.74,4.64c2.41,1.3,4.21-.72,4.05-3.31-.17-2.3-1.6-5.81-4.27-6S146.86,183.72,147.55,186.16Z" style="fill:#e4897b"></path><path d="M154.49,189.59a8.55,8.55,0,0,0-3.06,1.53,12.76,12.76,0,0,0,2.35,6.74,10.23,10.23,0,0,0,9.7,4.46c1-2.12,1.51-8.79,1.45-9.64C164.86,191.68,157.51,188.94,154.49,189.59Z" style="opacity:0.2"></path><path d="M171.53,185.76c-.16.65.15,1.25.58,1.32s.86-.4,1-1.06-.15-1.25-.58-1.32S171.64,185.14,171.53,185.76Z" style="fill:#2e353a"></path><path d="M169.11,185.68a23.74,23.74,0,0,0,2.18,6.17,3.87,3.87,0,0,1-3.26.05Z" style="fill:#de5753"></path><path d="M162.4,180.6a.44.44,0,0,0,.36.19,3.16,3.16,0,0,1,2.64,1,.38.38,0,0,0,.54.08.38.38,0,0,0,.08-.54h0a3.86,3.86,0,0,0-3.3-1.35.38.38,0,0,0-.38.4h0A.64.64,0,0,0,162.4,180.6Z" style="fill:#2e353a"></path><path d="M162.77,193.9h0a6,6,0,0,1,5.55-.18.22.22,0,0,1,.08.28.2.2,0,0,1-.27.09h0a5.76,5.76,0,0,0-5.15.19.19.19,0,0,1-.27-.07h0a.2.2,0,0,1,.07-.28Z" style="fill:#2e353a"></path><path d="M175.77,182.05a.41.41,0,0,0,.15-.17.39.39,0,0,0-.31-.46h0a3.91,3.91,0,0,0-3.44,1,.38.38,0,0,0,0,.55h0a.39.39,0,0,0,.55,0h0a3.15,3.15,0,0,1,2.74-.72A.46.46,0,0,0,175.77,182.05Z" style="fill:#2e353a"></path><path d="M232.56,104.3c0,1.24-3.46,5.16-1.69,11.23,1.3,4.47,17.92,16.09,25.75,28.56,9.94,15.83,12.09,30,12.09,30h-3s-2.81-16.21-10.89-28.88c-8-12.51-24.26-24.48-25.57-29.53C227.32,108.38,232.56,103.06,232.56,104.3Z" style="fill:#263238"></path><path d="M255.88,258.8c7.8-12.41,11.24-28.68,11.24-28.68h2.36s-2.16,14-12.06,29.81c-8.33,13.33-25.55,24.61-26.55,29-1.48,6.41,1.69,9.13,1.69,10.37s-4.25-2.92-3.35-10.53C229.84,283.45,247.29,272.48,255.88,258.8Z" style="fill:#263238"></path><path d="M262.94,166.1c.9-1,5,3.1,5.29,3.72s7.51,32,7.6,33.43c.21,3.38-2.67,8.79-3.86,15.1-.7,3.71-1.93,15.1-3.17,16.34s-3.05,4-4.34,3.73c-.77-.15.48-4.68,1.12-10.45a108.49,108.49,0,0,0,.6-11.32c0-2-1.76-3.06-1.62-5.39.12-1.83,4.14-4.51,4.17-6.47,0-1.52-2.57-3.22-2.62-4.78-.06-1.75.46-3.65.46-5.4C266.56,182.74,262.54,166.54,262.94,166.1Z" style="fill:#03045E"></path><path d="M262.94,166.1c.9-1,5,3.1,5.29,3.72s7.51,32,7.6,33.43c.21,3.38-2.67,8.79-3.86,15.1-.7,3.71-1.93,15.1-3.17,16.34s-3.05,4-4.34,3.73c-.77-.15.48-4.68,1.12-10.45a108.49,108.49,0,0,0,.6-11.32c0-2-1.76-3.06-1.62-5.39.12-1.83,4.14-4.51,4.17-6.47,0-1.52-2.57-3.22-2.62-4.78-.06-1.75.46-3.65.46-5.4C266.56,182.74,262.54,166.54,262.94,166.1Z" style="fill:#fff;opacity:0.4"></path><polygon points="228.99 115.16 229.44 115.58 156.14 195.55 229.46 289.03 228.97 289.41 155.33 195.52 155.51 195.32 228.99 115.16" style="fill:#263238"></polygon><polygon points="228.99 115.16 229.44 115.58 156.14 195.55 229.46 289.03 228.97 289.41 155.33 195.52 155.51 195.32 228.99 115.16" style="fill:#fff;opacity:0.5"></polygon><polygon points="168.62 196.52 158.93 196.52 157.59 193.7 166.21 193.7 168.62 196.52" style="fill:#03045E"></polygon><polygon points="168.62 196.52 158.93 196.52 157.59 193.7 166.21 193.7 168.62 196.52" style="fill:#fff;opacity:0.4"></polygon><polygon points="168.62 196.95 166.21 199.77 157.59 199.77 158.93 196.95 168.62 196.95" style="fill:#03045E"></polygon><polygon points="168.62 196.95 166.21 199.77 157.59 199.77 158.93 196.95 168.62 196.95" style="fill:#fff;opacity:0.4"></polygon><path d="M283.85,196.69l-.53-.32a3.08,3.08,0,0,0-1.59-.45h-1.37v.46H158v.81H280.35v.44h1.36a3.12,3.12,0,0,0,1.61-.42l.53-.31A.12.12,0,0,0,283.85,196.69Z" style="fill:#263238"></path><path d="M283.85,196.69l-.53-.32a3.08,3.08,0,0,0-1.59-.45h-1.37v.46H158v.81H280.35v.44h1.36a3.12,3.12,0,0,0,1.61-.42l.53-.31A.12.12,0,0,0,283.85,196.69Z" style="opacity:0.5"></path><path d="M270.84,205.38c-1.44-.48-6.75.44-6.75.44l.26,4.06s4.63-1.14,5.92-2.11A3,3,0,0,0,270.84,205.38Z" style="fill:#e4897b"></path><path d="M126.18,197.76l21.64-3s3.11-3.56,6.09-4.18,10.24,1.92,10.31,2.85-.72,9.55-2.06,9.64a39,39,0,0,1-14.22-1.76l-19.42,5.89Z" style="fill:#e4897b"></path><path d="M82.4,213.33s-4.14-14.67,12.69-14.67,48.74-4.94,48.74-4.94l2,11S117.79,219.51,82.4,213.33Z" style="fill:#03045E"></path><path d="M82.4,213.33s-4.14-14.67,12.69-14.67,48.74-4.94,48.74-4.94l2,11S117.79,219.51,82.4,213.33Z" style="opacity:0.5"></path></g><g id="freepik--Target--inject-13"><polygon points="329.47 206.45 310.12 196.77 329.47 187.09 329.47 206.45" style="fill:#03045E;fill-rule:evenodd"></polygon><polygon points="329.47 206.45 310.12 196.77 329.47 187.09 329.47 206.45" style="fill:#fff;fill-rule:evenodd;opacity:0.5"></polygon><circle cx="386.74" cy="196.38" r="60.86" style="fill:#03045E"></circle><circle cx="386.74" cy="196.38" r="60.86" style="fill:#fff;opacity:0.5"></circle><circle cx="386.74" cy="196.38" r="48.69" style="fill:#fafafa"></circle><circle cx="386.74" cy="196.38" r="36.52" style="fill:#03045E"></circle><circle cx="386.74" cy="196.38" r="36.52" style="fill:#fff;opacity:0.7000000000000001"></circle><circle cx="386.74" cy="196.38" r="24.34" style="fill:#fafafa"></circle><circle cx="386.74" cy="196.38" r="12.17" style="fill:#03045E"></circle><circle cx="386.74" cy="196.38" r="12.17" style="fill:#fff;opacity:0.8"></circle><path d="M390.5,209s-16.61,5-18.57,4.73-3.42-4.73-3.42-4.73,11.65-10.94,17.63-12.88c0,0-8.92-.92-12.76-11.3a20.39,20.39,0,0,1,17.89,8.21s7.22-9,14.56-10.6c0,0,.18,10.34-8.32,12.07,0,0,10.59,9,11.08,39.92H384.3A27.26,27.26,0,0,0,390.5,209Z" style="fill:#03045E;fill-rule:evenodd"></path><path d="M387.84,195.16s-2.28-3.58-3.84-11-13.92-16-17.91-20.47-10.54-6.21-10.43-8.61,6.34,3.36,7.6,3.45-5.46-11.65-3.41-13,4.38,11.16,5.78,11.44,3.81-10.65,7.24-11.55-5.94,10.9-3.16,14.9,3.84,2.32,5.31.42,7-5.24,8.75-4.69-10.14,6.94-8.94,9.77,5.55,10.7,10.22,10.23,3.49-5.31,4.74-4.7,1.58,4.49-1.58,7.46,3.06,16.36,3.06,16.36Z" style="fill:#03045E;fill-rule:evenodd"></path><path d="M391.8,194.84s7.52-14.25,11.7-19.2,6.73-20.17,5.41-26.22-3.88-4.69-3.57-1.33,2.39,10.53.42,10.57-7.68-14.23-10.77-14.11,3.25,6.9,4.76,9.4,7.85,14.09,3.11,15.75-1.67-6.41-3-9.27-4.8-5.88-5.95-5.71,6.93,8.53,3.49,10.48-10.22-6.5-12.08-5.95,5,7.17,9.44,9.12,5.84,5.62,2.15,10.84S390,193.08,390,193.08Z" style="fill:#03045E;fill-rule:evenodd"></path><path d="M395.12,232.25,385,234.44h-.68s-6.87,7-37,8.23a60.87,60.87,0,0,0,60.22,10.94,87.26,87.26,0,0,0,1.11-19.17Z" style="fill:#03045E;fill-rule:evenodd"></path><g style="opacity:0.6000000000000001"><path d="M390.5,209s-16.61,5-18.57,4.73-3.42-4.73-3.42-4.73,11.65-10.94,17.63-12.88c0,0-8.92-.92-12.76-11.3a20.39,20.39,0,0,1,17.89,8.21s7.22-9,14.56-10.6c0,0,.18,10.34-8.32,12.07,0,0,10.59,9,11.08,39.92H384.3A27.26,27.26,0,0,0,390.5,209Z" style="fill:#263238;fill-rule:evenodd"></path><path d="M387.84,195.16s-2.28-3.58-3.84-11-13.92-16-17.91-20.47-10.54-6.21-10.43-8.61,6.34,3.36,7.6,3.45-5.46-11.65-3.41-13,4.38,11.16,5.78,11.44,3.81-10.65,7.24-11.55-5.94,10.9-3.16,14.9,3.84,2.32,5.31.42,7-5.24,8.75-4.69-10.14,6.94-8.94,9.77,5.55,10.7,10.22,10.23,3.49-5.31,4.74-4.7,1.58,4.49-1.58,7.46,3.06,16.36,3.06,16.36Z" style="fill:#263238;fill-rule:evenodd"></path><path d="M391.8,194.84s7.52-14.25,11.7-19.2,6.73-20.17,5.41-26.22-3.88-4.69-3.57-1.33,2.39,10.53.42,10.57-7.68-14.23-10.77-14.11,3.25,6.9,4.76,9.4,7.85,14.09,3.11,15.75-1.67-6.41-3-9.27-4.8-5.88-5.95-5.71,6.93,8.53,3.49,10.48-10.22-6.5-12.08-5.95,5,7.17,9.44,9.12,5.84,5.62,2.15,10.84S390,193.08,390,193.08Z" style="fill:#263238;fill-rule:evenodd"></path><path d="M395.12,232.25,385,234.44h-.68s-6.87,7-37,8.23a60.87,60.87,0,0,0,60.22,10.94,87.26,87.26,0,0,0,1.11-19.17Z" style="fill:#263238;fill-rule:evenodd"></path></g></g></svg>